<svg width="32" height="32" viewBox="0 0 32 32" fill="none" xmlns="http://www.w3.org/2000/svg">
  <circle cx="16" cy="16" r="15" stroke="#0A4A13" stroke-width="2" />
  <path d="M16 10C18 15 21 17 21 23C16 21 11 21 6 23C6 17 9 15 11 10C13 15 14 15 16 10Z" fill="#0A4A13" />
  <circle cx="11" cy="17" r="0.5" fill="white" />
  <path d="M11 17C11.5 20 12.5 21 16 23" stroke="white" stroke-width="0.5" />
  <circle cx="16" cy="13" r="0.5" fill="white" />
  <path d="M16 13C17 17 18 19 21 23" stroke="white" stroke-width="0.5" />
  <circle cx="21" cy="17" r="0.5" fill="white" />
  <path d="M21 17C19 18 18 20 16 23" stroke="white" stroke-width="0.5" />
</svg>